<?xml version="1.0" encoding="UTF-8" standalone="no"?>
<!DOCTYPE svg PUBLIC "-//W3C//DTD SVG 1.1//EN" "http://www.w3.org/Graphics/SVG/1.1/DTD/svg11.dtd">
<svg width="100%" height="100%" viewBox="0 0 2100 571" version="1.1" xmlns="http://www.w3.org/2000/svg" xmlns:xlink="http://www.w3.org/1999/xlink" xml:space="preserve" xmlns:serif="http://www.serif.com/" style="fill-rule:evenodd;clip-rule:evenodd;stroke-linejoin:round;stroke-miterlimit:2;">
    <g transform="matrix(4.16667,0,0,4.16667,0,0)">
        <path d="M244.281,48.195L251.212,28.667L251.961,28.667L258.667,48.195L244.281,48.195ZM246.248,16.974L227.325,67.015L237.669,67.015L241.66,55.682L261.299,55.682L265.147,67.015L275.846,67.015L257.133,16.974L246.248,16.974Z" style="fill:rgb(255,255,255);fill-rule:nonzero;"/>
        <path d="M291.644,45.132L316.306,45.132L316.306,37.288L291.644,37.288L291.644,25.531L318.515,25.531L318.515,16.974L281.305,16.974L281.305,67.015L319.086,67.015L319.086,58.458L291.644,58.458L291.644,45.132Z" style="fill:rgb(255,255,255);fill-rule:nonzero;"/>
        <path d="M356.575,38.179C355.216,39.386 353.178,39.997 350.517,39.997L337.832,39.997L337.832,24.818L350.517,24.818C353.176,24.818 355.213,25.417 356.571,26.598C357.945,27.795 358.641,29.713 358.641,32.301C358.641,34.981 357.946,36.959 356.575,38.179ZM368.733,61.64C368.613,60.482 368.528,59.347 368.48,58.264C368.434,57.174 368.386,56.227 368.339,55.42C368.246,54.167 368.068,52.89 367.812,51.631C367.561,50.395 367.155,49.247 366.607,48.218C366.063,47.2 365.353,46.305 364.493,45.56C363.646,44.823 362.55,44.265 361.238,43.902L360.925,43.816L360.925,43.06L361.193,42.954C363.941,41.854 365.944,40.237 367.147,38.147C368.363,36.037 368.98,33.494 368.98,30.589C368.98,28.708 368.643,26.927 367.979,25.299C367.314,23.672 366.338,22.222 365.08,20.987C363.821,19.751 362.285,18.762 360.516,18.049C358.743,17.335 356.722,16.974 354.509,16.974L327.493,16.974L327.493,67.015L337.832,67.015L337.832,47.128L349.449,47.128C352.355,47.128 354.494,47.793 355.808,49.106C357.103,50.402 357.96,52.449 358.352,55.191C358.64,57.253 358.856,59.423 358.997,61.64C359.128,63.696 359.469,65.502 360.01,67.015L370.123,67.015C369.781,66.406 369.51,65.712 369.314,64.943C369.048,63.907 368.852,62.796 368.733,61.64Z" style="fill:rgb(255,255,255);fill-rule:nonzero;"/>
        <path d="M414.83,48.547C414.322,50.606 413.498,52.486 412.381,54.136C411.255,55.801 409.767,57.153 407.959,58.155C406.144,59.161 403.916,59.67 401.337,59.67C398.756,59.67 396.528,59.161 394.716,58.155C392.905,57.153 391.417,55.801 390.293,54.136C389.177,52.49 388.353,50.609 387.844,48.547C387.339,46.507 387.084,44.374 387.084,42.208C387.084,39.95 387.339,37.735 387.843,35.623C388.352,33.491 389.176,31.562 390.291,29.89C391.415,28.202 392.904,26.838 394.716,25.834C396.53,24.828 398.758,24.319 401.337,24.319C403.915,24.319 406.143,24.828 407.959,25.834C409.769,26.838 411.258,28.202 412.383,29.89C413.5,31.566 414.323,33.494 414.831,35.623C415.335,37.735 415.591,39.95 415.591,42.208C415.591,44.374 415.335,46.507 414.83,48.547ZM419.408,23.389C417.319,21.022 414.73,19.139 411.712,17.793C408.691,16.446 405.201,15.763 401.337,15.763C397.518,15.763 394.039,16.447 390.995,17.793C387.954,19.14 385.354,21.022 383.267,23.389C381.174,25.76 379.548,28.578 378.431,31.764C377.313,34.959 376.745,38.473 376.745,42.208C376.745,45.848 377.312,49.29 378.43,52.438C379.547,55.577 381.174,58.347 383.264,60.669C385.35,62.988 387.951,64.834 390.993,66.159C394.036,67.483 397.516,68.154 401.337,68.154C405.202,68.154 408.694,67.483 411.716,66.159C414.734,64.835 417.324,62.988 419.41,60.669C421.501,58.347 423.127,55.577 424.244,52.437C425.362,49.29 425.929,45.848 425.929,42.208C425.929,38.473 425.362,34.959 424.243,31.764C423.126,28.578 421.5,25.76 419.408,23.389Z" style="fill:rgb(255,255,255);fill-rule:nonzero;"/>
        <path d="M245.296,124.177C243.486,123.175 241.997,121.823 240.873,120.158C239.757,118.512 238.933,116.631 238.424,114.57C237.92,112.529 237.664,110.396 237.664,108.23C237.664,105.972 237.919,103.757 238.424,101.645C238.932,99.513 239.756,97.584 240.871,95.913C241.995,94.225 243.484,92.861 245.296,91.856C247.11,90.851 249.338,90.342 251.917,90.342C253.336,90.342 254.715,90.578 256.015,91.043C257.316,91.511 258.497,92.17 259.526,93.002C260.556,93.836 261.427,94.819 262.114,95.924L262.116,95.925C262.745,96.937 263.176,98.055 263.397,99.251L273.389,99.251C273.032,96.565 272.255,94.143 271.076,92.046C269.827,89.826 268.221,87.938 266.302,86.435C264.378,84.929 262.169,83.766 259.733,82.976C257.292,82.186 254.663,81.786 251.917,81.786C248.098,81.786 244.619,82.469 241.575,83.816C238.534,85.162 235.934,87.045 233.847,89.411C231.755,91.782 230.128,94.6 229.011,97.786C227.893,100.981 227.325,104.495 227.325,108.23C227.325,111.871 227.892,115.312 229.011,118.46C230.128,121.599 231.754,124.369 233.844,126.691C235.93,129.01 238.531,130.857 241.573,132.181C244.616,133.505 248.096,134.176 251.917,134.176C254.989,134.176 257.842,133.705 260.396,132.777C262.944,131.851 265.198,130.489 267.095,128.732C268.991,126.975 270.54,124.813 271.701,122.307C272.806,119.922 273.52,117.226 273.829,114.287L263.837,114.287C263.36,117.615 262.154,120.35 260.249,122.419C258.25,124.591 255.446,125.692 251.917,125.692C249.336,125.692 247.108,125.183 245.296,124.177Z" style="fill:rgb(255,255,255);fill-rule:nonzero;"/>
        <path d="M318.227,114.57C317.719,116.628 316.895,118.508 315.778,120.158C314.653,121.822 313.166,123.175 311.355,124.177C309.542,125.183 307.314,125.692 304.734,125.692C302.153,125.692 299.925,125.183 298.112,124.177C296.304,123.176 294.816,121.824 293.689,120.158C292.573,118.51 291.749,116.629 291.241,114.57C290.736,112.529 290.48,110.396 290.48,108.23C290.48,105.972 290.736,103.757 291.24,101.645C291.748,99.515 292.572,97.586 293.688,95.913C294.813,94.225 296.301,92.86 298.112,91.856C299.926,90.851 302.155,90.342 304.734,90.342C307.312,90.342 309.54,90.851 311.355,91.856C313.167,92.862 314.655,94.226 315.78,95.913C316.897,97.588 317.72,99.517 318.227,101.645C318.732,103.757 318.987,105.972 318.987,108.23C318.987,110.396 318.732,112.529 318.227,114.57ZM322.804,89.411C320.716,87.045 318.127,85.161 315.109,83.816C312.089,82.468 308.598,81.786 304.734,81.786C300.915,81.786 297.436,82.469 294.393,83.816C291.351,85.163 288.751,87.045 286.663,89.411C284.571,91.782 282.945,94.6 281.828,97.786C280.709,100.981 280.142,104.495 280.142,108.23C280.142,111.871 280.708,115.312 281.827,118.46C282.944,121.599 284.57,124.369 286.661,126.691C288.747,129.01 291.347,130.857 294.39,132.181C297.433,133.505 300.913,134.176 304.734,134.176C308.6,134.176 312.092,133.506 315.111,132.181C318.131,130.857 320.72,129.01 322.807,126.691C324.897,124.369 326.524,121.599 327.641,118.459C328.759,115.312 329.326,111.871 329.326,108.23C329.326,104.495 328.758,100.981 327.64,97.786C326.523,94.6 324.897,91.782 322.804,89.411Z" style="fill:rgb(255,255,255);fill-rule:nonzero;"/>
        <path d="M372.729,114.329C372.387,117.985 371.155,120.823 369.066,122.763C366.976,124.707 363.988,125.692 360.188,125.692C357.607,125.692 355.379,125.183 353.566,124.177C351.757,123.175 350.269,121.823 349.143,120.158C348.026,118.51 347.203,116.629 346.695,114.57C346.19,112.529 345.934,110.396 345.934,108.23C345.934,105.972 346.19,103.757 346.694,101.645C347.202,99.515 348.026,97.586 349.142,95.913C350.266,94.225 351.755,92.861 353.566,91.856C355.38,90.851 357.608,90.342 360.188,90.342C362.978,90.342 365.39,91.09 367.358,92.565C369.257,93.99 370.577,96.118 371.285,98.895L381.168,98.895C380.853,96.258 380.098,93.885 378.921,91.836C377.673,89.662 376.067,87.81 374.147,86.329C372.225,84.847 370.038,83.707 367.649,82.941C365.256,82.174 362.746,81.786 360.188,81.786C356.369,81.786 352.89,82.469 349.847,83.816C346.805,85.162 344.205,87.045 342.118,89.411C340.026,91.782 338.399,94.6 337.282,97.786C336.163,100.983 335.595,104.497 335.595,108.23C335.595,111.869 336.163,115.31 337.282,118.46C338.399,121.599 340.025,124.369 342.116,126.691C344.201,129.01 346.802,130.857 349.844,132.181C352.887,133.505 356.367,134.176 360.188,134.176C362.59,134.176 365.005,133.672 367.364,132.678C369.708,131.69 371.881,129.924 373.822,127.427L374.395,126.69L375.649,133.037L382.001,133.037L382.001,106.376L361.469,106.376L361.469,113.863L372.772,113.863L372.729,114.329Z" style="fill:rgb(255,255,255);fill-rule:nonzero;"/>
        <rect x="391.903" y="82.997" width="10.339" height="50.04" style="fill:rgb(255,255,255);fill-rule:nonzero;"/>
        <path d="M424.192,133.037L434.531,133.037L434.531,91.553L449.783,91.553L449.783,82.997L408.939,82.997L408.939,91.553L424.192,91.553L424.192,133.037Z" style="fill:rgb(255,255,255);fill-rule:nonzero;"/>
        <path d="M492.357,114.57C491.85,116.625 491.026,118.505 489.908,120.158C488.782,121.823 487.294,123.175 485.485,124.177C483.671,125.183 481.443,125.692 478.864,125.692C476.282,125.692 474.054,125.183 472.242,124.177C470.432,123.175 468.944,121.823 467.819,120.158C466.703,118.512 465.879,116.631 465.371,114.57C464.866,112.529 464.61,110.396 464.61,108.23C464.61,105.972 464.866,103.757 465.37,101.645C465.879,99.513 466.703,97.584 467.818,95.913C468.941,94.225 470.43,92.861 472.242,91.856C474.056,90.851 476.284,90.342 478.864,90.342C481.441,90.342 483.669,90.851 485.485,91.856C487.296,92.861 488.785,94.225 489.91,95.913C491.027,97.59 491.851,99.519 492.358,101.645C492.862,103.757 493.117,105.972 493.117,108.23C493.117,110.396 492.862,112.529 492.357,114.57ZM501.77,97.786C500.653,94.6 499.027,91.782 496.934,89.411C494.846,87.045 492.257,85.161 489.239,83.816C486.218,82.468 482.727,81.786 478.864,81.786C475.044,81.786 471.566,82.469 468.522,83.816C465.481,85.162 462.881,87.045 460.793,89.411C458.701,91.782 457.075,94.6 455.958,97.786C454.839,100.981 454.272,104.495 454.272,108.23C454.272,111.871 454.838,115.312 455.957,118.46C457.074,121.599 458.7,124.369 460.791,126.691C462.877,129.01 465.477,130.857 468.519,132.181C471.562,133.505 475.043,134.176 478.864,134.176C482.729,134.176 486.221,133.506 489.242,132.181C492.261,130.857 494.85,129.01 496.937,126.691C499.027,124.369 500.654,121.599 501.771,118.459C502.889,115.312 503.456,111.871 503.456,108.23C503.456,104.495 502.888,100.981 501.77,97.786Z" style="fill:rgb(255,255,255);fill-rule:nonzero;"/>
        <path d="M104.73,12.135C127.319,3.71 152.248,10.695 167.934,27.351C170.384,27.088 172.686,26.831 174.824,26.585C157.967,5.561 128.503,-4.975 101.869,3.371C86.13,7.81 72.61,18.383 63.825,32.01C68.485,32.143 73.136,32.221 77.757,32.244C84.453,23.173 93.686,15.953 104.73,12.135Z" style="fill:rgb(255,255,255);fill-rule:nonzero;"/>
        <path d="M141.337,124.237C121.623,130.303 100.221,124.475 85.363,111.297C79.961,112.204 74.766,112.966 69.827,113.596C69.855,113.628 69.881,113.663 69.91,113.695C87.753,134.568 118.54,142.548 144.197,133C168.107,124.879 184.751,102.916 188.604,78.875C186.404,79.962 184.196,81.025 181.981,82.055C176.94,101.67 161.989,118.424 141.337,124.237Z" style="fill:rgb(255,255,255);fill-rule:nonzero;"/>
        <path d="M84.45,90.322C81.588,92.379 77.749,94.422 73.319,96.405C71.468,93.1 69.931,89.594 68.795,85.897C66.611,79.593 65.704,73.047 65.876,66.553C94.471,73.246 100.731,78.622 84.45,90.322ZM169.781,46.765C170.726,42.13 176.371,35.891 183.416,29.173C183.416,29.173 79.172,46.379 0,35.567C0,35.567 14.919,54.724 53.224,63.732C52.243,76.661 55.138,89.791 61.266,101.192C38.211,109.461 9.62,115.721 9.62,115.721C40.789,116.134 141.749,108.086 213.849,57.065C228.74,26.676 191.183,42.488 169.781,46.765Z" style="fill:rgb(255,255,255);fill-rule:nonzero;"/>
    </g>
</svg>
